<svg version="1.0" xmlns="http://www.w3.org/2000/svg" xmlns:xlink="http://www.w3.org/1999/xlink"
     viewBox="0 0 240 120"
     color-interpolation-filters="sRGB">
    <g fill="#450b68"
       transform="translate(10,10)">
        <g>
            <g transform="translate(0, 10)">
               <g transform="scale(1.2)">
                        <rect fill="#450b68" fill-opacity="0" stroke-width="2" x="0" y="0" width="82.7293113479705"
                              height="71.60850977925257"></rect>
                        <svg x="0" y="0" width="82.7293113479705" height="71.60850977925257"
                              style="overflow: visible;">
                            <svg xmlns="http://www.w3.org/2000/svg" xmlns:xlink="http://www.w3.org/1999/xlink"
                                 viewBox="-0.004837512969970703 0.003910064697265625 116.29138946533203 100.65931701660156">
                                <defs>
                                    <linearGradient id="ef50f308-a4e6-42bd-a003-4eff1f3165c5" x1="35.58" y1="86.59"
                                                    x2="97.58" y2="24.59"
                                                    gradientTransform="matrix(1, 0, 0, -1, 0, 101.99)"
                                                    gradientUnits="userSpaceOnUse">
                                        <stop offset="0" stop-color="#93339e"></stop>
                                        <stop offset="1" stop-color="#450b68"></stop>
                                    </linearGradient>
                                </defs>
                                <title>7619</title>
                                <g id="bdb629a9-c5a0-4b5e-83f7-409ce17022fc">
                                    <g id="f1d53a6a-9d11-4667-8b9e-c2b3e6492a78">
                                        <path d="M103.88,43.86C94.15,34,88,22.79,82.64,23.15c-4.06.26-7.34,8.85-11.77,8.67s-6.81-9.65-12.66-10S36.67,43.31,34.4,49.35c-3.18,8.49,5.4,14.78,12.22,9.47s11-11.51,13.63-11.51,5,9.91,9.82,9.91S79.63,48.73,82.2,48c5-1.4,14.08,10.44,15.67,19.91C100,80.53,85.13,94.32,55.12,93.18,31.21,92.27,7.29,67.71,18.19,40.84S52.82-1.63,80.44.14s36.51,27.31,34.1,38C112.22,48.54,107.06,47.09,103.88,43.86Z"
                                              fill="url(#ef50f308-a4e6-42bd-a003-4eff1f3165c5)"></path>
                                        <path d="M91.27,53.87c-3.08-3.95-6.59-6.55-9.1-5.85s-7.35,9.2-12.13,9.2-7.16-9.91-9.82-9.91-6.82,6.2-13.63,11.51-15.4-1-12.22-9.47c2.27-6,18-27.88,23.81-27.53s8.24,9.83,12.66,10,7.71-8.41,11.77-8.67c2.07-.14,4.23,1.41,6.66,3.92C78.51,13.89,57.79,9.34,39.86,12,24.53,14.3,11.24,21.87,8,33.84S8.6,54.9,16.27,61.55C41.55,83.49,107.64,78.13,91.27,53.87Z"
                                              fill="#93339e" opacity="0.6"></path>
                                        <path d="M82.2,48c-2.57.71-7.35,9.2-12.13,9.2s-7.16-9.91-9.82-9.91-6.82,6.2-13.63,11.51-15.4-1-12.22-9.47c.86-2.28,3.64-6.82,7.07-11.57C28.38,55,26.09,71.47,30,83.26l1.35,1.08L30,83.26c3.72,11.25,13.08,18.2,24.07,17.33,5.33-.43,10.7-3.74,15.78-8.15h0c13.94-12.12,25.64-32.56,28-24.51C96.28,58.46,87.23,46.62,82.2,48ZM55.12,93.18a42.71,42.71,0,0,1-23.71-8.81,42.64,42.64,0,0,0,23.72,8.81,78.46,78.46,0,0,0,14.29-.69A78.57,78.57,0,0,1,55.12,93.18Z"
                                              fill="#450b68" opacity="0.5" style="isolation:isolate"></path>
                                        <g opacity="0.5">
                                            <path d="M109.78,9.37a10.68,10.68,0,0,0-8.63-1.75,35.88,35.88,0,0,1,10.24,12.75C113.21,16,113.59,12.13,109.78,9.37Z"
                                                  fill="#93339e"></path>
                                            <path d="M101.15,7.65c-13.42,2.54-29,24.4-35.21,20.37,1.56,2,3.06,3.73,4.93,3.8,4.43.18,7.71-8.41,11.77-8.67C88,22.79,94.15,34,103.88,43.86c-3.8-6.31,4.22-15.61,7.51-23.49A35.87,35.87,0,0,0,101.15,7.65Z"
                                                  fill="#93339e"></path>
                                        </g>
                                        <path d="M101.68,55c-2.78,1.81,6.1,21.57,12.3,17.56S104.45,53.16,101.68,55ZM14.93,69.64c2,1.64-1.86,9.93-6.4,6.3S12.9,68,14.93,69.64Z"
                                              fill="#450b68"></path>
                                        <path d="M108.79,51.91c-3.46,1.37,4.56,7.83,7,4.85S111,51,108.79,51.91ZM70.66,95.56c-.83,3.57,4.14,3.64,3.11.12C73.19,93.67,71.13,93.58,70.66,95.56Z"
                                              fill="#93339e"></path>
                                        <path d="M12.61,65.21c-1.66,2.29-6.29,5.18-10,4.25-3.1-.79-5.6-9.18,5.75-7.76C14.83,62.52,13.4,64.11,12.61,65.21Z"
                                              fill="#450b68"></path>
                                    </g>
                                </g>
                            </svg>
                        </svg> <!---->
                    </g>
            </g>
            <g transform="translate(111, 28)">
                <g fill="#450b68" class="bg-white" transform="scale(1)">
                    <path d="M19.37-49.75L8.43-49.75L9.68-59.77L20.62-59.77L19.37-49.75ZM18.03-43.49L12.27 3.01L2.67 3.01L8.43-43.49L18.03-43.49Z"
                          transform="translate(-2.671304347826087, 59.7704347826087)"></path>
                </g>
            </g>
            <g transform="translate(131, 28)">
                <g fill="#450b68" transform="scale(1)">
                    <path d="M27.97-34.56L16.53-34.56L12.02 3.01L2.42 3.01L8.10-43.49L29.05-43.49Q46.33-43.49 46.33-27.63L46.33-27.63Q46.33-25.71 46.08-23.46L46.08-23.46L42.82 3.01L33.22 3.01L36.48-23.71Q36.65-25.38 36.65-26.05L36.65-26.05Q36.65-34.56 27.97-34.56L27.97-34.56Z"
                          transform="translate(-2.4208695652173917, 59.7704347826087)"></path>
                </g>
            </g>
            <g transform="translate(180, 30)">
                <g fill="#450b68" transform="scale(1)">
                    <path d="M3.17-16.70L4.01-23.71Q6.43-43.83 26.13-43.83L26.13-43.83L30.14-43.83Q47.42-43.83 47.42-27.97L47.42-27.97Q47.42-26.05 47.17-23.79L47.17-23.79L46.33-16.78Q43.91 3.34 24.21 3.34L24.21 3.34L20.20 3.34Q2.92 3.34 2.92-12.52L2.92-12.52Q2.92-14.44 3.17-16.70L3.17-16.70ZM21.29-5.59L25.29-5.59Q35.31-5.59 36.65-16.53L36.65-16.53L37.57-24.04Q37.73-25.71 37.73-26.38L37.73-26.38Q37.73-34.89 29.05-34.89L29.05-34.89L25.04-34.89Q15.03-34.89 13.69-23.96L13.69-23.96L12.77-16.45Q12.61-14.78 12.61-14.11L12.61-14.11Q12.61-5.59 21.29-5.59L21.29-5.59Z"
                          transform="translate(-2.9217391304347826, 59.7704347826087)"></path>
                </g>
            </g>
        </g>
    </g>
</svg>
